PathFileType	4	(X/Y/Z)	C:/Users/opensim2020/Desktop/walking_exp_matlab/subject06_walking16_straight_04.trc																																																																																																																																																							
DataRate	CameraRate	NumFrames	NumMarkers	Units	OrigDataRate	OrigDataStartFrame	OrigNumFrames																																																																																																																																																			
100	100	4	51	mm	100	4097	352																																																																																																																																																			
Frame#	Time	LFHD			RFHD			LBHD			RBHD			C7			T10			CLAV			STRN			RBAK			LSHO			LUPA			LELB			LFRM			LWRA			LWRB			LFIN			RSHO			RUPA			RELB			RFRM			RWRA			RWRB			RFIN			LASI			RASI			LPSI			RPSI			LTHI			LKNE			LTIB			LANK			LHEE			LTOE			RTHI			RKNE			RTIB			RANK			RHEE			RTOE			*39			*40			*41			*42			*43			*44			*45			*46			*47			*48			*49			*50		
		X1	Y1	Z1	X2	Y2	Z2	X3	Y3	Z3	X4	Y4	Z4	X5	Y5	Z5	X6	Y6	Z6	X7	Y7	Z7	X8	Y8	Z8	X9	Y9	Z9	X10	Y10	Z10	X11	Y11	Z11	X12	Y12	Z12	X13	Y13	Z13	X14	Y14	Z14	X15	Y15	Z15	X16	Y16	Z16	X17	Y17	Z17	X18	Y18	Z18	X19	Y19	Z19	X20	Y20	Z20	X21	Y21	Z21	X22	Y22	Z22	X23	Y23	Z23	X24	Y24	Z24	X25	Y25	Z25	X26	Y26	Z26	X27	Y27	Z27	X28	Y28	Z28	X29	Y29	Z29	X30	Y30	Z30	X31	Y31	Z31	X32	Y32	Z32	X33	Y33	Z33	X34	Y34	Z34	X35	Y35	Z35	X36	Y36	Z36	X37	Y37	Z37	X38	Y38	Z38	X39	Y39	Z39	X40	Y40	Z40	X41	Y41	Z41	X42	Y42	Z42	X43	Y43	Z43	X44	Y44	Z44	X45	Y45	Z45	X46	Y46	Z46	X47	Y47	Z47	X48	Y48	Z48	X49	Y49	Z49	X50	Y50	Z50	X51	Y51	Z51
																																																																																																																																																										
265	2.64	383.0571	1671.37537	-1535.38428	370.82016	1658.97095	-1403.99109	251.30547	1613.36145	-1548.89368	241.05371	1606.32788	-1419.87622	248.23474	1456.88257	-1489.90515	219.14493	1126.78101	-1475.45874	358.09573	1380.74133	-1480.67859	400.66513	1206.0564	-1481.04065	174.20346	1286.76758	-1408.80481	316.23032	1408.52356	-1646.05249	325.823	1205.28369	-1718.25598	326.29584	1093.16406	-1730.09143	362.29529	946.81915	-1747.49854	417.03296	834.34747	-1692.53894	368.41693	827.72864	-1744.1123	411.45334	748.09448	-1734.95032	307.09763	1414.39648	-1322.66211	270.64081	1215.52026	-1233.81152	282.90436	1094.16248	-1221.63989	294.57773	974.69794	-1201.44885	351.16772	833.15558	-1225.62415	295.237	837.06714	-1188.39954	329.98056	760.11316	-1182.57239	411.52371	973.85144	-1571.23755	392.76855	975.19812	-1350.12537	249.62857	997.07288	-1554.03564	242.83661	992.87292	-1386.09998	353.65222	660.43347	-1633.89441	353.7702	496.08801	-1612.25818	334.94086	239.84509	-1596.97595	351.95059	68.32643	-1547.78699	314.36682	53.56131	-1501.3114	499.68948	44.37151	-1539.78748	373.19	636.40759	-1291.84595	400.78946	512.35645	-1304.56567	219.44003	335.24921	-1318.39661	81.09542	212.89926	-1365.47229	40.01349	219.68523	-1414.55933	159.51834	79.08596	-1355.0614	276.42569	1706.01086	-1485.32227	NaN	NaN	NaN	NaN	NaN	NaN	NaN	NaN	NaN	NaN	NaN	NaN	NaN	NaN	NaN	NaN	NaN	NaN	NaN	NaN	NaN	NaN	NaN	NaN	NaN	NaN	NaN	NaN	NaN	NaN	NaN	NaN	NaN
266	2.65	389.76697	1671.75647	-1535.76782	377.21442	1659.19788	-1404.47717	257.93845	1614.13208	-1549.78027	247.40936	1606.89282	-1420.75061	254.54736	1457.35889	-1491.09912	224.75255	1127.35986	-1476.72595	364.09283	1381.18384	-1481.50806	406.40063	1206.4491	-1482.02612	179.91652	1287.39294	-1410.16113	323.05164	1409.0636	-1646.88464	336.07477	1206.10583	-1719.46655	338.6196	1094.04004	-1731.73889	377.49942	948.53229	-1749.27441	433.32504	836.83337	-1693.8125	385.69879	829.57629	-1746.26343	430.07303	750.72949	-1736.80432	312.61957	1414.88171	-1323.63293	275.57117	1216.09607	-1235.03369	287.4826	1094.70325	-1222.75256	299.16803	975.2229	-1202.56543	355.45065	833.59625	-1226.86279	299.56952	837.5426	-1189.74597	334.16391	760.54053	-1183.86853	416.68549	974.05731	-1572.81055	398.73816	976.09113	-1351.55908	254.72546	997.29413	-1554.74243	248.72551	993.59161	-1386.77087	357.289	660.41193	-1634.35645	356.66547	496.08786	-1612.52905	336.21829	239.93742	-1596.98474	352.26382	68.44173	-1547.50244	314.51373	53.80669	-1501.07092	499.92502	44.09583	-1539.80762	383.04047	637.93359	-1292.6825	412.60522	514.43048	-1305.7644	234.53865	334.04752	-1318.8949	98.35582	208.91551	-1365.79724	56.64166	214.72804	-1414.74902	181.08025	78.23256	-1356.08179	283.1626	1706.62012	-1485.89197	NaN	NaN	NaN	NaN	NaN	NaN	NaN	NaN	NaN	NaN	NaN	NaN	NaN	NaN	NaN	NaN	NaN	NaN	NaN	NaN	NaN	NaN	NaN	NaN	NaN	NaN	NaN	NaN	NaN	NaN	NaN	NaN	NaN
267	2.66	396.47513	1672.13416	-1536.172	383.63654	1659.38245	-1404.87354	264.64017	1614.88159	-1550.4375	253.66934	1607.48669	-1421.62964	260.30112	1457.93591	-1492.10022	230.34647	1127.99976	-1477.87866	370.12103	1381.64819	-1482.38489	412.15143	1206.85876	-1483.06921	185.67445	1288.03882	-1411.51685	329.67844	1409.67078	-1647.67188	346.03809	1207.05603	-1720.57788	350.78821	1095.07947	-1733.2959	392.49707	950.37378	-1750.73938	449.29825	839.48804	-1694.98914	402.87991	831.3894	-1747.94055	448.74127	753.70972	-1738.54224	318.27945	1415.32703	-1324.60913	280.24808	1216.60986	-1236.09363	292.06454	1095.18896	-1223.78748	303.52676	975.70239	-1203.70471	359.83722	834.04626	-1228.01416	303.85583	837.96906	-1191.03564	338.49258	760.86487	-1185.35034	421.62122	974.3338	-1574.49536	404.54919	976.88873	-1353.16577	259.69278	997.50397	-1555.41846	254.5235	994.33813	-1387.35791	361.02939	660.33948	-1634.76086	359.68668	496.06198	-1612.74487	337.66302	240.06383	-1596.93518	352.65259	68.55074	-1547.17786	314.69901	54.10805	-1500.74402	500.20737	43.84445	-1539.86719	393.0405	639.62555	-1293.5885	424.29926	516.56213	-1307.34753	249.68599	332.30173	-1319.52136	116.08361	204.19556	-1366.3009	73.86511	208.71942	-1415.08899	203.35477	76.84664	-1356.92432	289.88458	1707.22986	-1486.46301	NaN	NaN	NaN	NaN	NaN	NaN	NaN	NaN	NaN	NaN	NaN	NaN	NaN	NaN	NaN	NaN	NaN	NaN	NaN	NaN	NaN	NaN	NaN	NaN	NaN	NaN	NaN	NaN	NaN	NaN	NaN	NaN	NaN
268	2.67	403.17441	1672.45581	-1536.46448	390.06808	1659.47778	-1405.26538	271.34686	1615.62341	-1551.04736	259.93979	1608.05444	-1422.42493	266.39249	1458.53247	-1493.23596	235.91794	1128.51721	-1478.9552	376.00082	1382.01782	-1483.1637	417.7702	1207.18909	-1484.07751	191.37981	1288.61584	-1412.71912	336.16974	1410.25964	-1648.46021	355.65259	1208.03284	-1721.62903	362.65622	1096.21021	-1734.68347	407.33121	952.40918	-1752.12488	465.4119	842.40601	-1696.22449	420.10721	833.86871	-1750.00171	467.31119	756.93372	-1740.10266	323.94046	1415.745	-1325.54065	285.1886	1217.13538	-1237.18555	296.608	1095.66748	-1224.79358	307.91092	976.13641	-1204.82922	364.49979	834.57208	-1229.08936	308.25195	838.39856	-1192.23926	342.80063	761.14105	-1186.84216	425.52121	974.17639	-1575.87476	410.59213	977.81415	-1354.51111	264.67996	997.66571	-1556.01929	260.42606	995.03607	-1387.93237	364.8204	660.09576	-1635.24512	362.77292	496.06195	-1612.95886	339.10272	240.09698	-1597.0155	353.03214	68.64253	-1546.8606	315.47589	54.31525	-1500.12366	500.56009	43.55816	-1539.85754	402.72504	641.29834	-1294.48999	435.78333	518.75427	-1308.79993	265.05206	330.16251	-1320.37549	134.56001	198.75613	-1366.92834	91.72739	201.74199	-1415.37878	226.70319	75.4467	-1357.43347	296.55786	1707.79053	-1486.93579	NaN	NaN	NaN	NaN	NaN	NaN	NaN	NaN	NaN	NaN	NaN	NaN	NaN	NaN	NaN	NaN	NaN	NaN	NaN	NaN	NaN	NaN	NaN	NaN	NaN	NaN	NaN	NaN	NaN	NaN	NaN	NaN	NaN
